<?xml version="1.0" standalone="no"?><!DOCTYPE svg PUBLIC "-//W3C//DTD SVG 1.1//EN" "http://www.w3.org/Graphics/SVG/1.1/DTD/svg11.dtd"><svg t="1714136708981" class="icon" viewBox="0 0 1024 1024" version="1.1" xmlns="http://www.w3.org/2000/svg" p-id="6606" xmlns:xlink="http://www.w3.org/1999/xlink" width="200" height="200"><path d="M561.193 653.005c1.4-24.5 10-48.1 24.7-67.9 27.2-31.4 47.5-68.199 59.399-107.998 32.9-24.3 53.8-59.1 58.2-97.099 3.8-57.7-12.1-60.8-12.1-60.8C714.79 256.31 721.99 19.314 551.992 46.713c-26.8-50.1-205.097-89.099-288.396 44-44.8 70.299-53.6 154.398-24.2 230.897 0 5.3-11.3-5.3-15.1 28.5-1.8 36.099 9.2 71.799 31.4 101.998 7.9 8.7 17.8 15.2 28.9 19.1 10.6 41.3 31.599 79.699 61.499 112.499 5.5 27.2-9.4 54.399-36.8 67.099C147.698 680.505 0 760.303 0 846.902v67.1C18.6 1033.8 377.995 1026.7 625.492 1021.8c13.3-0.3 22.1-14.5 15.7-26.1-0.2-0.3-0.4-0.7-0.6-1-17.1-29.4-51.6-32.8-71.6-47.999-12.099-12.1-9.499-32.1-9.599-60 0.1 0 0.9-230.196 1.8-233.696z" fill="currentColor" p-id="6607"></path><path d="M960.888 576.406H702.69c-33.5-0.8-61.399 23.9-62.699 55.499v254.997c0.9 16.7 6 26 15.7 33.3L804.59 1016.5c8.1 5.4 17.9 7.5 27.4 7.4 5.1 0.1 11-2 20.7-7.3 44.599-24.8 151.297-96.299 151.297-96.299 11.2-5.9 18.6-17 19.6-29.6V635.706c2.1-16.4-3.8-32.9-16-44.2a58.152 58.152 0 0 0-46.7-15.1z m2.7 145.898l-55.2 50.3 13.8 69.998c1 4.7-1 9.6-5.1 12.2-2.2 1.7-5 2.6-7.8 2.6-2.1 0.4-4.2 0.4-6.3 0l-69.398-32.2-69.7 32.2c-1.9 0.3-3.9 0.3-5.9 0-3 0.1-5.9-0.8-8.2-2.6-3.9-2.7-5.9-7.5-5.1-12.2l14.5-69.999-55.299-48.5c-3.8-3.2-5.2-8.3-3.5-13 1.8-4.599 6-7.899 11-8.499l76.8-14.4 33.299-63.699c3.9-6.7 12.6-8.9 19.3-5 2.1 1.2 3.8 2.9 5 5l34.099 65.2 76.399 12.599c4.8 0.7 8.8 4 10.6 8.5 0.9 4.2-0.3 8.5-3.3 11.5z" fill="currentColor" p-id="6608"></path></svg>