<?xml version="1.0" standalone="no"?><!DOCTYPE svg PUBLIC "-//W3C//DTD SVG 1.1//EN" "http://www.w3.org/Graphics/SVG/1.1/DTD/svg11.dtd"><svg t="1714137778576" class="icon" viewBox="0 0 1024 1024" version="1.1" xmlns="http://www.w3.org/2000/svg" p-id="8421" xmlns:xlink="http://www.w3.org/1999/xlink" width="200" height="200"><path d="M334.3 868.8H218.4c-6.9 0-12.7-5.9-12.7-12.7V167.8c0-6.9 5.8-12.8 12.7-12.8h586.4c6.9 0 12.8 5.8 12.8 12.8v371.1l51 22V167.8c0-35.1-28.7-63.7-63.7-63.7H218.4c-35.1 0-63.7 28.6-63.7 63.7v688.3c0 35 28.7 63.7 63.7 63.7h115.9v-51z m413.9-398.2c0-66.5-53.9-120.4-120.4-120.4s-120.4 53.9-120.4 120.4S561.3 591 627.8 591c66.4 0.1 120.4-53.8 120.4-120.4z m40.1 160.6h-22.2L641.2 884.8 688 651.3l-60.2-60.2-60.2 60.2 46.7 233.5-125-253.6h-22.2c-80.2 0-80.2 53.9-80.2 120.4v168.1h481.8v-168c-0.1-66.5-0.1-120.5-80.4-120.5zM286.2 237.3h448v47.2h-448v-47.2z m0 120.5H441v50.5H286.2v-50.5z m0 129.6h172.7v47.2H286.2v-47.2z m0 0" p-id="8422"></path></svg>