<?xml version="1.0" standalone="no"?><!DOCTYPE svg PUBLIC "-//W3C//DTD SVG 1.1//EN" "http://www.w3.org/Graphics/SVG/1.1/DTD/svg11.dtd"><svg t="1714280242399" class="icon" viewBox="0 0 1024 1024" version="1.1" xmlns="http://www.w3.org/2000/svg" p-id="1788" xmlns:xlink="http://www.w3.org/1999/xlink" width="200" height="200"><path d="M512 85.333333a426.666667 426.666667 0 1 0 426.666667 426.666667A427.136 427.136 0 0 0 512 85.333333z m0 768a341.333333 341.333333 0 1 1 341.333333-341.333333 341.717333 341.717333 0 0 1-341.333333 341.333333z m213.333333-341.333333a42.666667 42.666667 0 0 1-42.666666 42.666667h-170.666667a42.666667 42.666667 0 0 1-42.666667-42.666667V298.666667a42.666667 42.666667 0 0 1 85.333334 0v170.666666h128a42.666667 42.666667 0 0 1 42.666666 42.666667z" fill="currentColor" p-id="1789"></path></svg>