<?xml version="1.0" standalone="no"?><!DOCTYPE svg PUBLIC "-//W3C//DTD SVG 1.1//EN" "http://www.w3.org/Graphics/SVG/1.1/DTD/svg11.dtd"><svg t="1714230426640" class="icon" viewBox="0 0 1024 1024" version="1.1" xmlns="http://www.w3.org/2000/svg" p-id="1918" xmlns:xlink="http://www.w3.org/1999/xlink" width="200" height="200"><path d="M737.82720568 879.27941138h71.96691221v42.1875h-71.96691221zM618.70955854 693.15808862h42.1875v74.44852927h-42.1875zM618.70955854 107.49632358h71.96691219v42.1875h-71.96691219zM660.89705853 817.23897073h-42.18749999v104.22794065h71.96691219v-42.1875h-29.77941219zM618.70955854 571.55882358h42.1875v74.44852926h-42.1875zM618.70955854 201.79779432h42.1875v74.44852926h-42.1875zM618.70955854 323.39705854h42.1875v74.44853008h-42.1875zM618.70955854 447.47794147h42.1875v74.44852926h-42.1875zM859.42647073 231.57720568h42.1875v74.44852928h-42.1875zM859.42647073 355.65808862h42.1875v74.44852927h-42.1875zM859.42647073 107.49632358h42.1875v74.44852927h-42.1875zM859.42647073 817.23897073h42.1875v104.22794065h-42.1875zM737.82720568 107.49632358h71.96691221v42.1875h-71.96691221zM859.42647073 477.25735284h42.1875v74.44852927h-42.1875zM859.42647073 601.33823496h42.1875v74.44853008h-42.1875zM102.53308862 114.94117642v794.11764716h471.50735284V114.94117642H102.53308862z m74.44852927 74.44852926h124.08088211v645.22058864H176.98161789V189.38970568z m322.61029349 645.22058864h-124.08088211V189.38970568h124.08088211v645.22058864z" p-id="1919"></path></svg>