<?xml version="1.0" standalone="no"?><!DOCTYPE svg PUBLIC "-//W3C//DTD SVG 1.1//EN" "http://www.w3.org/Graphics/SVG/1.1/DTD/svg11.dtd"><svg t="1714230422002" class="icon" viewBox="0 0 1024 1024" version="1.1" xmlns="http://www.w3.org/2000/svg" p-id="1761" xmlns:xlink="http://www.w3.org/1999/xlink" width="200" height="200"><path d="M122 542a30 30 0 0 1-30-30l0-300a60 60 0 0 1 60-60L812 152a60 60 0 0 1 60 60L872 512a30 30 0 0 1-59.99999999 0l-1e-8-300-660 0L152 512a30 30 0 0 1-30 30zM482 872a30 30 0 0 1-30-30l0.06000001-409.2-127.98000001 130.44a30.48 30.48 0 0 1-38.88 3.12l-4.19999999-3.54a31.62 31.62 0 0 1-1e-8-44.34l174.35999999-177.72a30.36 30.36 0 0 1 26.58000001-8.22l-3.06-0.42a30.42 30.42 0 0 1 6.24 0 30.72 30.72 0 0 1 23.88 9.06l174 177.3a31.62 31.62 0 0 1 0 44.34 30.6 30.6 0 0 1-43.5 0L512 432.86 512 842a30 30 0 0 1-24.6 29.52z" p-id="1762"></path></svg>