<?xml version="1.0" standalone="no"?><!DOCTYPE svg PUBLIC "-//W3C//DTD SVG 1.1//EN" "http://www.w3.org/Graphics/SVG/1.1/DTD/svg11.dtd"><svg t="1714137536842" class="icon" viewBox="0 0 1024 1024" version="1.1" xmlns="http://www.w3.org/2000/svg" p-id="1124" xmlns:xlink="http://www.w3.org/1999/xlink" width="200" height="200"><path d="M862.96797969 930.32164156v-788.99310469L738.2143325 32.60940875 323.03909562 187.74959375v38.80491844l377.04449532-127.08235406v887.77916343H951.09085437v-56.92820812h-88.12287468zM187.92255406 687.26907781l197.70606937-39.55122375v-100.31546812L187.92255406 599.38319469v87.88588312z m0 301.31734969h197.70606937V883.33239219l-197.70606937 14.3431875v90.91084781z m0-151.14075562l197.70606937-19.09481063v-100.14618844l-197.70606937 33.23780625v86.00319282z m0-303.25744875l197.70606937-54.40814063V375.58000062L187.92255406 442.46777469v91.72044844z m417.00640781-259.08561094l-111.64841249-67.83132657L72.97096906 358.82420187 72.761945 990.71347063h55.36494187V389.38296406l314.47704844-103.56712031v701.70190969h162.34269094l-0.01766438-712.41514125z m1e-8 0" p-id="1125"></path></svg>