<?xml version="1.0" standalone="no"?><!DOCTYPE svg PUBLIC "-//W3C//DTD SVG 1.1//EN" "http://www.w3.org/Graphics/SVG/1.1/DTD/svg11.dtd"><svg t="1714078932410" class="icon" viewBox="0 0 1024 1024" version="1.1" xmlns="http://www.w3.org/2000/svg" p-id="973" xmlns:xlink="http://www.w3.org/1999/xlink" width="200" height="200"><path d="M904.78400036 263.15839963a173.76576037 173.76576037 0 0 1-122.77439999 166.05120074A278.00640001 278.00640001 0 0 0 794.24 347.36000037a281.76959963 281.76959963 0 0 0-137.82719963-242.25600074A177.29376037 177.29376037 0 0 1 730.736 88.64a174.37727963 174.37727963 0 0 1 174.04800036 174.51839963z m-35.27999999 215.9136a77.42783962 77.42783962 0 0 0-58.80000074 7.056 156.6432 156.6432 0 0 1-65.38559926 19.28640074 239.90400001 239.90400001 0 0 1-32.92800037 39.98399926A255.19200037 255.19200037 0 0 1 884.5568 747.19999963h32.45760001a57.76512037 57.76512037 0 0 0 51.27360035-29.6352 119.99904037 119.99904037 0 0 0 14.11200001-56.91839925v-33.39840074a152.45664038 152.45664038 0 0 0-112.896-148.17600001zM367.58719963 105.10399963A177.29376037 177.29376037 0 0 0 293.264 88.64a174.04800038 174.04800038 0 0 0-51.27360037 340.56960037A278.00640001 278.00640001 0 0 1 229.76 347.36000037a281.76959963 281.76959963 0 0 1 137.82719963-242.25600074z m-55.97759963 440.2944a239.90400001 239.90400001 0 0 1-32.92800037-39.98399926 156.6432 156.6432 0 0 1-65.38559926-19.28640074 77.42783962 77.42783962 0 0 0-58.80000074-7.056A152.45664038 152.45664038 0 0 0 41.59999963 627.24799964v33.39840074a119.99904037 119.99904037 0 0 0 14.11200001 56.91839925 57.57696 57.57696 0 0 0 50.8032 29.6352h32.92800036a255.19200037 255.19200037 0 0 1 172.1664-201.8016z m368.79360037 63.97440037a109.74431963 109.74431963 0 0 0-24.93120075-3.29280037 95.63231963 95.63231963 0 0 0-46.56959999 12.23040074 200.76671963 200.76671963 0 0 1-193.80479926 0 95.63231963 95.63231963 0 0 0-46.56959999-12.23040074 109.74431963 109.74431963 0 0 0-24.93120075 3.29280037A186.04320037 186.04320037 0 0 0 206.24000036 789.53599963v40.92480001a144.55392037 144.55392037 0 0 0 17.40479926 68.67840073 68.44320001 68.44320001 0 0 0 61.62240075 36.22079963h453.46559926a68.44320001 68.44320001 0 0 0 61.62240075-36.22079963 144.55392037 144.55392037 0 0 0 17.40479926-68.67840073v-40.92480001a186.04320037 186.04320037 0 0 0-137.35679927-180.16319963z m43.27679963-262.01279963A211.68 211.68 0 1 0 512 559.04000038a211.68 211.68 0 0 0 211.68-211.68000001z" fill="currentColor" p-id="974"></path></svg>