<?xml version="1.0" standalone="no"?><!DOCTYPE svg PUBLIC "-//W3C//DTD SVG 1.1//EN" "http://www.w3.org/Graphics/SVG/1.1/DTD/svg11.dtd"><svg t="1714230417830" class="icon" viewBox="0 0 1024 1024" version="1.1" xmlns="http://www.w3.org/2000/svg" p-id="1604" xmlns:xlink="http://www.w3.org/1999/xlink" width="200" height="200"><path d="M902 482a30 30 0 0 1 30 30v300a60 60 0 0 1-60 60H212a60 60 0 0 1-60-60V512a30 30 0 0 1 60 0v300h660V512a30 30 0 0 1 30-30zM542 152a30 30 0 0 1 30 30l-0.06 409.2 127.98-130.44a30.48 30.48 0 0 1 38.88-3.12l4.2 3.54a31.62 31.62 0 0 1 0 44.34l-174.36 177.72a30.36 30.36 0 0 1-26.58 8.22l3.06 0.42a30.42 30.42 0 0 1-6.24 0 30.72 30.72 0 0 1-23.88-9.06l-174-177.3a31.62 31.62 0 0 1 0-44.34 30.6 30.6 0 0 1 43.5 0L512 591.14V182a30 30 0 0 1 24.6-29.52z" p-id="1605"></path></svg>