<?xml version="1.0" standalone="no"?><!DOCTYPE svg PUBLIC "-//W3C//DTD SVG 1.1//EN" "http://www.w3.org/Graphics/SVG/1.1/DTD/svg11.dtd"><svg t="1714137132704" class="icon" viewBox="0 0 1024 1024" version="1.1" xmlns="http://www.w3.org/2000/svg" p-id="1250" xmlns:xlink="http://www.w3.org/1999/xlink" width="200" height="200"><path d="M935.916361 685.71953h-92.681866V527.510252c-0.017396-9.643638-3.729951-18.888186-10.329253-25.696242-6.594185-6.80601-15.529695-10.617825-24.837688-10.600429H522.308275V335.360977h85.246523c6.650467 0 13.026688-2.741437 17.72571-7.610328 4.707209-4.868891 7.345292-11.480472 7.345292-18.3663V91.181699c-0.033769-14.316054-11.253298-25.90295-25.071002-25.90295h-210.606649c-13.823843 0.034792-25.009603 11.658528-25.009603 25.974581v218.196511c0.040932 14.32424 11.253298 25.911136 25.073048 25.911136h85.183078v155.924236H196.434369c-19.333324 0.036839-34.999119 16.267499-35.032887 36.297694v158.912289h-69.316715c-13.668301 0.042979-24.729218 11.749602-24.729218 26.17515V932.470377c0 14.450107 11.107989 26.175149 24.795732 26.175149h208.296024c13.672394-0.036839 24.733311-11.747555 24.733311-26.175149V712.603831c-0.038886-14.431687-11.129478-26.109658-24.795733-26.109658h-98.871845V532.778232h280.681634v155.852604h-85.183078c-6.646374 0-13.027711 2.735297-17.727756 7.610328-4.700045 4.870938-7.345292 11.474332-7.345292 18.3663v218.131019c0 6.885827 2.64627 13.495362 7.345292 18.3663 4.700045 4.868891 11.081383 7.610328 17.727756 7.610328h210.543204c6.650467 0 13.026688-2.741437 17.72571-7.610328 4.707209-4.870938 7.345292-11.480472 7.345292-18.3663V714.535833c-0.033769-14.316054-11.253298-25.904996-25.071002-25.904997v-0.071631h-85.246523V532.706601h280.812617v153.012929h-76.080769c-16.584724 0-24.874527 8.6848-24.874527 26.190499v220.548068c0 17.505699 8.227382 26.25599 24.806989 26.255991h208.944799c16.584724 0 24.874527-8.750291 24.874527-26.255991v-220.481553c-0.001023-17.499559-8.290827-26.257014-24.87555-26.257014z" p-id="1251"></path></svg>