<?xml version="1.0" standalone="no"?><!DOCTYPE svg PUBLIC "-//W3C//DTD SVG 1.1//EN" "http://www.w3.org/Graphics/SVG/1.1/DTD/svg11.dtd"><svg t="1714353299014" class="icon" viewBox="0 0 1024 1024" version="1.1" xmlns="http://www.w3.org/2000/svg" p-id="1727" xmlns:xlink="http://www.w3.org/1999/xlink" width="200" height="200"><path d="M671.78300952 600.07483598a103.74799576 103.74799576 0 1 1 146.60645926 146.81451005 103.74799576 103.74799576 0 0 1-146.60645926-146.81451005z m73.30322964 31.69307089l-6.79632594 0.62415239a41.74885926 41.74885926 0 1 0 6.79632594-0.62415239z" fill="#000000" fill-opacity=".9" p-id="1728"></path><path d="M745.08623916 715.19627513c-90.43274497 0-164.36012698 68.17131005-164.36012699 152.36253122 0 2.98206138 0.76285291 18.5858709 2.28855873 46.7420783h61.99913651a1990.28324233 1990.28324233 0 0 1-2.21920847-46.7420783c0-49.51608889 45.63247408-90.29404444 102.29164022-90.29404445 56.7285164 0 102.43034074 40.77795556 102.43034073 90.29404445 0 1.87245714 0.69350265 17.4069164 2.21920847 46.7420783h62.13783704a2892.18343281 2892.18343281 0 0 1-2.21920847-46.7420783c0-84.1218709-74.13543281-152.29318095-164.56817777-152.29318095zM279.88466455 151.37862434H186.53920846c-17.12951535 0-30.99956825 13.87005291-30.99956825 31.06891852v725.05701587c0 17.12951535 13.87005291 30.99956825 30.99956825 30.99956825h378.02829207V876.43564021H217.46942646V213.37776084h62.41523809a30.99956825 30.99956825 0 0 0 0-61.9991365zM845.71347302 151.37862434h-95.70336508c-17.12951535 0-30.99956825 13.87005291-30.99956826 31.06891852l0.55480212 5.54802116c2.56595979 14.42485503 15.2570582 25.45154709 30.5141164 25.45154709l64.56509629-0.06935027v367.2096508h62.06848678V182.44754286c0-17.12951535-13.87005291-31.06891852-30.99956825-31.06891852z" fill="#000000" fill-opacity=".9" p-id="1729"></path><path d="M746.81999576 85.49587302a30.99956825 30.99956825 0 0 1 30.99956826 30.99956825v131.83485291c0 17.12951535-13.87005291 30.99956825-30.99956826 30.99956825H285.43268571a30.99956825 30.99956825 0 0 1-31.06891852-30.99956825V116.49544127c0-17.12951535 13.87005291-30.99956825 31.06891852-30.99956825z m-31.06891851 61.9991365H316.3629037V217.26137566h399.38817355V147.49500952zM538.35310053 324.47688465H269.96757672v61.99913651h268.38552381v-30.99956825zM744.87818836 390.35963598H269.96757672v61.99913651h474.91061164v-30.99956825zM538.35310053 526.84095662H269.96757672v61.99913651h268.38552381V557.7711746zM646.12341164 592.72370794H269.96757672v61.9991365h376.15583492v-30.99956825zM538.35310053 717.27678307H269.96757672v61.92978625h268.38552381v-30.99956826zM556.73092063 783.15953439H269.96757672v61.99913651h286.76334391v-30.99956825z" fill="#000000" fill-opacity=".9" p-id="1730"></path></svg>