<?xml version="1.0" standalone="no"?><!DOCTYPE svg PUBLIC "-//W3C//DTD SVG 1.1//EN" "http://www.w3.org/Graphics/SVG/1.1/DTD/svg11.dtd"><svg t="1714136836407" class="icon" viewBox="0 0 1024 1024" version="1.1" xmlns="http://www.w3.org/2000/svg" p-id="13022" xmlns:xlink="http://www.w3.org/1999/xlink" width="200" height="200"><path d="M415.64 836.61c-38.42-18.82-79.71-30.67-121.54-35.68 1.44-10.33 2.81-20.5 4.18-30.59 9.34-6.15 16.02-15.18 16.62-22.7 1.14-9.41 2.2-18.82 3.26-28.39 1.29 1.44 2.96 2.43 4.94 2.66 4.48 0.45 8.43-2.81 8.96-7.36l4.4-43.73c0.45-4.48-2.81-8.58-7.21-9.03-1.67-0.23-3.34 0.23-4.71 0.91 0.98-8.27 1.89-16.55 2.88-24.83 0.76-11.46 6.15-41.75-15.26-61.41-30.9-31.13-99.15-31.13-130.12 0-21.41 19.66-15.94 49.95-15.18 61.41 0.98 8.35 1.89 16.63 2.88 24.83-1.37-0.68-3.04-1.14-4.63-0.91-4.4 0.45-7.67 4.56-7.21 9.03l4.41 43.73c0.45 4.48 4.4 7.82 8.88 7.36 1.97-0.15 3.72-1.21 5.01-2.66 0.99 9.57 2.12 18.98 3.19 28.39 0.68 7.52 7.29 16.48 16.7 22.7 1.37 10.1 2.73 20.27 4.1 30.52-41.91 5.08-83.05 16.85-121.54 35.68-12.37 6.68-21.03 23.91-19.74 37.27 1.45 15.33 2.96 30.67 4.56 46.08 1.29 13.29 12.53 26.57 24.98 29.08 105.3 17.31 212.26 17.31 317.64 0 12.45-2.58 23.53-15.79 24.97-29.08 1.44-15.41 2.96-30.67 4.41-46.08 1.27-13.36-7.46-30.59-19.83-37.2z m528.83 0c-38.41-18.82-79.64-30.67-121.47-35.68 1.37-10.25 2.73-20.42 4.25-30.59 9.26-6.15 15.94-15.18 16.62-22.7 1.07-9.41 2.2-18.82 3.19-28.39 1.36 1.44 2.96 2.43 5.01 2.66 4.48 0.45 8.35-2.81 8.81-7.36l4.48-43.73c0.46-4.48-2.73-8.58-7.21-9.03-1.59-0.23-3.26 0.23-4.71 0.91 0.99-8.27 1.97-16.55 2.89-24.83 0.68-11.46 6.3-41.75-15.11-61.41-31.05-31.13-99.3-31.13-130.2 0-21.41 19.66-15.94 49.95-15.18 61.41 0.91 8.27 1.74 16.55 2.81 24.83-1.37-0.68-3.04-1.14-4.78-0.91-4.41 0.45-7.59 4.56-7.14 9.03l4.48 43.73c0.38 4.48 4.4 7.82 8.81 7.36 2.05-0.15 3.8-1.21 5.01-2.66 1.06 9.57 2.12 18.98 3.19 28.39 0.76 7.52 7.36 16.48 16.7 22.7 1.36 10.1 2.73 20.27 4.18 30.52-41.91 5.08-83.13 16.85-121.54 35.68-12.38 6.68-21.1 23.92-19.82 37.28 1.52 15.33 3.04 30.67 4.56 46.08 1.37 13.29 12.53 26.57 24.9 29.08 105.38 17.31 212.34 17.31 317.64 0 12.45-2.58 23.61-15.79 24.98-29.08 1.52-15.41 3.04-30.67 4.48-46.08 1.35-13.37-7.38-30.6-19.83-37.21z m-264.42-488.9c-38.49-18.75-79.64-30.52-121.54-35.68 1.44-10.1 2.81-20.42 4.18-30.59 9.41-6.08 16.02-15.03 16.63-22.55 1.14-9.57 2.2-18.98 3.34-28.39 1.29 1.36 3.04 2.28 5.01 2.58 4.4 0.38 8.35-2.88 8.73-7.36l4.48-43.73c0.53-4.48-2.81-8.5-7.21-9.03-1.59-0.15-3.26 0.23-4.71 0.99 1.06-8.35 2.05-16.63 2.89-24.98 0.76-11.39 6.3-41.76-15.18-61.34-30.9-31.2-99.15-31.2-130.04 0-21.41 19.58-15.94 49.95-15.18 61.34 0.91 8.35 1.97 16.63 2.89 24.98-1.44-0.76-3.04-1.14-4.71-0.99-4.48 0.53-7.74 4.56-7.29 9.03l4.4 43.73c0.53 4.48 4.48 7.74 8.81 7.36 1.97-0.23 3.8-1.21 5.09-2.58 0.99 9.41 2.12 18.82 3.19 28.39 0.69 7.52 7.37 16.47 16.7 22.55 1.36 10.17 2.73 20.34 4.1 30.59-41.91 5.16-83.05 17.01-121.47 35.76-12.45 6.6-21.18 23.91-19.81 37.27 1.44 15.34 2.96 30.75 4.55 46.08 1.29 13.36 12.53 26.57 24.9 29 105.37 17.39 212.34 17.39 317.64 0 12.45-2.43 23.54-15.64 24.98-29 1.52-15.33 3.04-30.75 4.4-46.08 1.26-13.36-7.39-30.67-19.77-37.35z m-42.43 373.82l-103.09-60.96V538.72c0-12.98-10.25-23.46-23-23.46-12.67 0-22.93 10.48-22.93 23.46v121.77l-103.02 61.04c-11.01 6.53-14.8 20.95-8.35 32.19 4.25 7.59 11.92 11.84 19.97 11.84 3.87 0 7.89-1.06 11.39-3.19l103.02-60.89 103.09 60.89c3.57 2.12 7.59 3.19 11.46 3.19 7.97 0 15.72-4.25 19.89-11.84 6.29-11.24 2.57-25.67-8.43-32.19z m0 0" fill="currentColor"></path></svg>