<?xml version="1.0" standalone="no"?><!DOCTYPE svg PUBLIC "-//W3C//DTD SVG 1.1//EN" "http://www.w3.org/Graphics/SVG/1.1/DTD/svg11.dtd"><svg t="1714230168567" class="icon" viewBox="0 0 1024 1024" version="1.1" xmlns="http://www.w3.org/2000/svg" p-id="1990" xmlns:xlink="http://www.w3.org/1999/xlink" width="200" height="200"><path d="M768.64 731.946667a42.666667 42.666667 0 1 1 0 85.333333h-512a42.666667 42.666667 0 0 1 0-85.333333h512zM539.349333 256l120.661334 120.661333L358.4 678.4l-119.466667 23.893333A21.333333 21.333333 0 0 1 213.333333 681.045333l0.426667-3.84 23.893333-119.466666L539.306667 256z m181.034667-60.330667a85.333333 85.333333 0 0 1 0 120.661334l-30.208 30.165333-120.661333-120.661333 30.165333-30.165334a85.333333 85.333333 0 0 1 120.704 0z" p-id="1991"></path></svg>