<?xml version="1.0" standalone="no"?><!DOCTYPE svg PUBLIC "-//W3C//DTD SVG 1.1//EN" "http://www.w3.org/Graphics/SVG/1.1/DTD/svg11.dtd"><svg t="1714197079590" class="icon" viewBox="0 0 1024 1024" version="1.1" xmlns="http://www.w3.org/2000/svg" p-id="1424" xmlns:xlink="http://www.w3.org/1999/xlink" width="200" height="200"><path d="M791.5050621 791.5050621c-154.43266868 154.43344117-404.80224609 154.43344117-559.2341423 0-34.85798836-34.85721588-61.42267227-74.76410866-80.5522728-117.20163345 145.53451538 65.53533554 322.44469643 38.97065163 441.99311257-80.59166908C713.26094818 474.1641159 739.83876418 297.25238991 674.29029656 151.718647c42.45065689 19.12960052 82.34441757 45.69428444 117.21553802 80.55150033 154.43189621 154.43344117 154.43189621 404.80224609 0 559.23491477zM501.26876068 510.82660866l-17.4687767 28.09495926-4.35058594-32.6564312-32.54982949-7.67300605 30.21695138-14.15948868-2.63723373-32.82637597 23.01901817 23.90118599 30.91526985-12.6299858-15.97867012 28.93850326 21.75292969 25.03595353-32.91907311-6.02531434z m-5.74799537-108.94927026L398.33012772 355.44456672l-78.08652878 74.18397904 14.13322449-106.77320479-94.6978569-51.33722307 105.91730117-19.56450462L365.15999985 146.0363121l51.338768 94.68549729 106.78710938-14.11931992-74.19711114 78.08652878 46.43277169 97.18909263zM310.42233658 573.1978817l-26.28813744 42.1486187-6.539011-48.99044037-48.95104407-11.50989533 45.44400214-21.23846053-3.98134231-49.25308228 34.63319778 35.8722496 46.49843215-18.94497872-24.04718398 43.41316224 32.72209167 37.546978-49.49100495-9.04415132z" fill="currentColor"></path></svg>