<?xml version="1.0" standalone="no"?><!DOCTYPE svg PUBLIC "-//W3C//DTD SVG 1.1//EN" "http://www.w3.org/Graphics/SVG/1.1/DTD/svg11.dtd"><svg t="1714587438137" class="icon" viewBox="0 0 1024 1024" version="1.1" xmlns="http://www.w3.org/2000/svg" p-id="2030" xmlns:xlink="http://www.w3.org/1999/xlink" width="200" height="200"><path d="M755.16875001 810.2375c4.6125-37.85625001 3.09375001-76.275-0.73125001-112.5 18.73125001-8.1 30.6-21.15 34.875-39.65625001 27.95625001 0.50625001 55.0125-1.29375001 83.7-10.40624999-24.075 66.4875-63.7875 116.4375-114.525 159.80625001l-3.375 2.75624999z m-320.28750002 78.01875001c75.99375001-90 174.31875001-160.2 238.83750002-200.19375001 9.1125 7.875 22.1625 15.075 34.31249998 17.55 4.55625001 44.15625001 1.35 89.1-3.4875 139.21875001-62.60625001 35.4375-121.10625001 51.75-192.59999998 51.74999998-28.8 0-47.08125001-1.35-74.08125001-7.36874999l-2.98125001-0.95625001z m-239.06249998-155.92500002c6.6375-44.71875001 23.5125-119.53125001 71.43749998-202.04999998 5.175 1.125 14.5125 2.7 20.1375 2.69999998 11.5875 0 22.725-1.40625001 32.34375001-8.04374999 79.425 58.66875001 185.0625 105.75 322.3125 122.625-83.98125001 40.5-188.1 117.5625-263.3625 224.6625-76.05-28.125-132.01875001-69.975-179.2125-135.61875001l-3.65625001-4.27499998z m-36.00000002-379.12499998c11.5875 23.625 27.84375001 51.01875001 56.86875001 75.31874999a93.2625 93.2625 0 0 0-5.45625001 29.53125001c0 16.70625001 4.1625 34.59375001 15.52500002 46.23749998-38.025 54.9-58.10625001 116.6625-66.88125001 165.15000002-23.0625-47.64375001-33.91875001-103.725-33.91874999-158.96250002 0-55.29375001 11.86875001-107.83125001 33.01874999-155.36249998-0.16875001 0.1125-1.4625 2.1375 0.7875-1.91250002z m187.65000002-191.25000002c24.58125001 13.1625 59.0625 34.03125001 97.70624999 64.12500002a67.89375001 67.89375001 0 0 0-4.05 46.125 696.43125001 696.43125001 0 0 0-129.09375001 115.03124999 95.9625 95.9625 0 0 0-27.56249998-5.34375001c-13.10625001 0-26.71875001 3.6-37.29375001 9.73125001-24.4125-23.68125001-48.7125-63.16875001-60.75-87.35625001a376.875 376.875 0 0 1 161.04375001-142.31249998z m327.26249998-0.84374999c-40.66875001 12.4875-78.58125001 26.71875001-113.34374999 42.75a72 72 0 0 0-50.4-20.7c-11.7 0-20.025 1.9125-29.8125 6.91875001a763.3125 763.3125 0 0 0-71.775-51.24375001 357.3 357.3 0 0 1 102.54375001-14.0625 383.0625 383.0625 0 0 1 162.78749998 36.3375z m-321.29999998 255.9375c32.85-37.2375 69.46875001-69.525 116.77499998-102.7125 12.09375001 9.1125 24.525 13.05 40.89375001 13.05 11.8125 0 20.41875001-2.025 30.2625-7.03125001 55.0125 63.1125 110.86875001 143.26875001 141.75 247.95000002a51.525 51.525 0 0 0-28.85625001 31.21874999C526.2875 584.7875 430.26874999 538.325 355.625 484.60624999a51.3 51.3 0 0 0 5.90625001-26.54999998c0-13.89375001-3.31875001-26.325-10.06875001-37.35000002l1.9125-3.7125z m544.72499998 93.54375001c0 27.95625001-0.5625 54.675-8.15624999 79.53749998-29.8125 9.50625001-64.6875 17.775-99.95625001 17.775-7.7625-26.325-32.175-47.86875001-57.54374999-48.375-22.275-113.79375001-90.45-211.66875001-154.6875-276.97499998 3.88125001-8.8875 5.4-16.9875 5.4-27.28125001 0-2.8125-0.45-5.45625001-0.84375001-8.15625001a860.85 860.85 0 0 1 150.35625001-52.7625 385.5375 385.5375 0 0 1 165.43125001 316.23750002zM512.05625001 62.5625C264.10624999 62.5625 62.45 263.7125 62.45 510.81874999S264.10624999 959.01875001 512 959.01875001s449.6625-201.09375001 449.6625-448.20000002S760.00625001 62.5625 512 62.5625z" p-id="2031"></path></svg>