<?xml version="1.0" standalone="no"?><!DOCTYPE svg PUBLIC "-//W3C//DTD SVG 1.1//EN" "http://www.w3.org/Graphics/SVG/1.1/DTD/svg11.dtd"><svg t="1714353303179" class="icon" viewBox="0 0 1024 1024" version="1.1" xmlns="http://www.w3.org/2000/svg" p-id="1886" xmlns:xlink="http://www.w3.org/1999/xlink" width="200" height="200"><path d="M922.21955203 766.21734973l-24.10966764-18.64836145c0.84361652-6.8821334 1.33202581-13.49786179 1.33202583-20.06918867 0-6.57132771-0.4884093-13.18705527-1.33202583-20.06918947l24.10966764-18.64836146a25.30849055 25.30849055 0 0 0 8.16975852-33.87785613l-35.20988278-61.05118416a25.39729193 25.39729193 0 0 0-33.52264975-9.76818932l-28.19454649 11.45542237c-10.65620654-7.9921549-22.28923169-14.652284-34.72147348-19.98038726l-4.17368023-30.19258521a25.21968914 25.21968914 0 0 0-25.21968915-24.10966764h-70.59736834a25.21968914 25.21968914 0 0 0-25.21968915 24.10966764l-4.12928037 30.19258521c-12.43224097 5.32810329-24.10966763 11.98823237-34.76587335 19.98038726l-28.23894799-11.45542237a25.21968914 25.21968914 0 0 0-33.43384754 9.85699155l-35.3430857 61.13998471a25.26408985 25.26408985 0 0 0 8.21416004 33.78905558l24.10966681 18.64836144a162.95115838 162.95115838 0 0 0-1.33202582 20.06918867c0 6.61572839 0.4440086 13.18705527 1.33202582 20.06918948l-24.10966681 18.64836145a25.21968914 25.21968914 0 0 0-8.21416004 33.87785612l35.25428348 61.05118416a25.04208554 25.04208554 0 0 0 33.43384836 9.76818933l28.15014578-11.45542236c10.65620654 7.9921549 22.33363321 14.652284 34.76587418 19.98038727l4.12927954 30.1925852c0.66601291 13.45346108 11.67742667 24.02086542 25.26408984 24.02086542h70.55296765a25.17528762 25.17528762 0 0 0 25.21968915-23.97646472l4.12927955-30.2813866c12.43224097-5.23930188 24.10966763-11.98823237 34.67707278-19.98038727l28.23894717 11.54422375c11.98823237 6.08291757 26.64051636 1.86483581 33.47824906-9.90139223l35.20988278-61.05118332a25.30849055 25.30849055 0 0 0 2.53084872-19.18117145 23.35485251 23.35485251 0 0 0-10.43420224-14.69668552zM734.09310519 813.85947348a86.35967386 86.35967386 0 0 1-86.27087246-86.27087247c0-47.55332153 38.71755093-86.27087246 86.27087248-86.27087246a86.27087246 86.27087246 0 1 1 0 172.54174493z m-139.41870226-564.0241333h158.20026663a24.33167193 24.33167193 0 0 0-7.1041377-16.20631411L608.57187179 96.3415646a21.40121447 21.40121447 0 0 0-15.0962926-6.21612048h-0.17760361v158.20026663c0 0.88801721 0.66601291 1.50962942 1.42082803 1.50962943z" p-id="1887"></path><path d="M593.69758349 933.875h-1.3320258 1.3320258z m-8.2141592-654.29108322a20.11359018 20.11359018 0 0 1-20.11358936-20.02478797V90.12544412H124.46928757A34.09986128 34.09986128 0 0 0 90.19182352 124.13650317V898.22110861c0 18.78156436 15.31829691 34.01105905 34.23306335 34.01105987h466.7418479a90.44455353 90.44455353 0 0 1-15.89550843-2.61965093c-22.20043029-5.90531479-40.75999036-22.82204251-52.21541189-42.62482617l-35.34308486-60.82917985a84.89444595 84.89444595 0 0 1 13.05385235-102.61038867 85.47165665 85.47165665 0 0 1-24.59807694-61.93920053h-220.67227716a13.8974697 13.8974697 0 0 1-13.89746969-13.80866747v-32.50143045c0-7.63694768 6.21612049-13.85306817 13.89746969-13.85306818h243.53872119l24.02086542-41.29280118c4.08487884-7.10413769 9.10217642-13.32025818 14.8742883-18.82596423h-282.38947421a13.8974697 13.8974697 0 0 1-13.94187039-13.80866831v-32.50142962c0-7.63694768 6.21612049-13.85306817 13.8974697-13.85306901h335.40410192c7.63694768 0 13.8974697 6.21612049 13.89746888 13.85306901v22.73324029c4.70649106 0.35520721 9.54618503 1.1988229 14.20827539 2.35324595a85.73806164 85.73806164 0 0 1 82.80760583-62.60521344H756.2047341V279.58391678h-170.72130981z m19.31437436 127.51927212c0 7.592547-6.21612049 13.76426678-13.89746887 13.76426678H255.49622785a13.8974697 13.8974697 0 0 1-13.8974697-13.76426678v-32.54583114c0-7.592547 6.21612049-13.76426678 13.8974697-13.76426679h335.40410192c7.63694768 0 13.8974697 6.17171978 13.89746888 13.76426679v32.54583114z" p-id="1888"></path></svg>