<?xml version="1.0" standalone="no"?><!DOCTYPE svg PUBLIC "-//W3C//DTD SVG 1.1//EN" "http://www.w3.org/Graphics/SVG/1.1/DTD/svg11.dtd"><svg t="1714587733112" class="icon" viewBox="0 0 1024 1024" version="1.1" xmlns="http://www.w3.org/2000/svg" p-id="2030" xmlns:xlink="http://www.w3.org/1999/xlink" width="200" height="200"><path d="M735.27031024 640.0984456c-56.22309168 0-101.96948512 45.73862622-101.96948512 101.9694851s45.7450989 101.98372503 101.97077966 101.98372503 101.96819058-45.75286613 101.96819058-101.98372503-45.7450989-101.97077965-101.96948512-101.97077965z m0 133.26624237c-17.24972247 0-31.28381187-14.0405621-31.28381187-31.29675727 0-17.24324978 14.03279486-31.2851064 31.28381187-31.2851064s31.2851064 14.0405621 31.28510641 31.2851064c0 17.25619517-14.03408941 31.29675725-31.28510641 31.29675727z" fill="currentColor" p-id="2031"></path><path d="M984.07797697 693.0450609c-2.74442114-14.33571682-11.45278009-23.55153477-22.02786323-23.34829227h-2.20071507c-36.4296015 0-66.08358969-29.31352462-66.08358969-65.30298312 0-11.86314871 5.69337932-24.87584743 5.76198986-24.97811594 5.54580195-12.7926272 1.3256072-27.72383163-10.09869306-35.7163109l-0.64209099-0.44014302-63.54111652-34.9072245-0.68222166-0.30551103a33.67741314 33.67741314 0 0 0-36.02052742 7.08371343c-7.72839348 7.931636-32.19516682 28.46689659-51.95111538 28.46689658-19.92812215 0-44.56318546-20.94562924-52.32264786-29.00930812a33.55831562 33.55831562 0 0 0-35.99204755-7.38922446l-0.71199605 0.30551104-65.7793732 35.71889998-0.64209098 0.44273209c-11.43595109 7.98341751-15.67168032 22.91721102-10.1336456 35.71889999 0.06861053 0.13333744 5.76457893 13.14733069 5.76457893 25.0104794 0 36.02311648-29.65528272 65.30298311-66.08488423 65.30298312h-2.20071506c-10.64110459-0.20324251-19.31451102 8.97891745-22.06281576 23.34829226-0.23819504 1.11848107-5.3205523 28.05911703-5.3205523 49.24035225 0 21.21359867 5.08235725 48.12187117 5.3205523 49.24164677 2.70946861 14.16483777 11.21587958 23.34958681 21.6550362 23.3495868l0.40648502-0.033658h2.2020096c36.4296015 0 66.08488423 29.34459355 66.08488423 65.33534658 0 11.86185419-5.69596839 24.87325835-5.72703731 24.97423234-5.55356918 12.79133266-1.36573787 27.71865347 10.02749345 35.75255798l0.57606952 0.44402662 62.35531947 34.46319787 0.67833806 0.30551104a32.91234101 32.91234101 0 0 0 36.12667954-7.49019844c7.32061392-7.89668347 32.76735273-30.29737371 53.13691244-30.29737372 20.50160261 0 45.58069253 22.26605827 53.47478693 30.83849071a32.81136703 32.81136703 0 0 0 24.02663031 10.13494014 29.86499792 29.86499792 0 0 0 11.99778071-2.3741832l0.71070151-0.2705585 64.62723414-35.31241497 0.6770435-0.47639008c11.41782755-7.98082845 15.63802231-22.89908749 10.09869306-35.68394746-0.07119961-0.13463198-5.76457893-13.11367269-5.76457893-25.01047941 0-36.02311648 29.65398818-65.33405203 66.08488423-65.33405204h2.20071506c10.57508315 0.23431143 19.28214755-8.94914307 22.02786324-23.3159288 0.23819504-1.11848107 5.32184684-28.02675358 5.32184682-49.24164677 0.00258907-21.17994066-5.08106272-48.12187117-5.35421028-49.24035224z m-65.6848719 57.50339003c-55.19393375 17.51898643-95.2715441 69.01571888-95.2715441 129.63635705 0 5.46812965 0.42719763 10.8106891 1.13142644 15.87621735L816.60485531 900.23202765c-19.43878669-15.29626421-48.91412859-32.58093922-82.6549741-32.58093921-33.01072592 0-62.29059255 16.95327321-81.73067378 31.93237554l-5.90827268-3.25835283c0.71846875-5.16261863 1.14696091-10.57378861 1.14696091-16.13900863 0-60.63358356-40.09185027-112.14326139-95.30131848-129.63506252-0.2200715-2.95543088-0.35988163-5.75810623-0.35988163-8.25785964 0-2.51140425 0.13851559-5.32831952 0.35988163-8.29799031 55.20946821-17.49050658 95.30131849-68.9859445 95.30131848-129.60658268 0-5.43964981-0.42719763-10.74078403-1.11848107-15.78042154l9.470842-5.14967324c19.37017616 14.66064592 48.14128925 30.8281344 80.77789362 30.8281344 32.20811219 0 60.66206341-15.72475638 79.92220381-30.08248036l7.74522248 4.25255822c-0.75989396 5.4525952-1.17414622 10.82233995-1.17414622 15.93188252 0 60.63358356 40.09185027 112.11607609 95.31426385 129.60787722 0.2200715 2.95413634 0.35988163 5.78399699 0.35988166 8.29799031-0.00388362 2.49845886-0.1423992 5.31537413-0.36247072 8.25527056z m-668.81413627-296.37159191c-19.52163714 0-35.34348389 15.82055221-35.34348388 35.34089481s15.82184675 35.34348389 35.34348388 35.3434839h268.60374598c19.52163714 0 35.34218935-15.82184675 35.34218936-35.34218936s-15.82184675-35.34218935-35.34218936-35.34218935h-268.60374598z m477.1253817-162.57717792c0-19.52163714-15.82184675-35.34218935-35.34218935-35.34218935H249.5789688c-19.52163714 0-35.34348389 15.82184675-35.34348388 35.34218935s15.82184675 35.34348389 35.34348388 35.34348389h441.78319235c19.52163714 0 35.34218935-15.82184675 35.34218935-35.34348389z" fill="currentColor" p-id="2032"></path><path d="M105.98490011 780.97139485V182.72771792c0-42.87510755 34.8800392-77.75385221 77.75385221-77.7538522h573.45456355c42.87510755 0 77.75385221 34.8800392 77.75385222 77.7538522V380.77265541h70.68567324V182.72771792c0-81.84718222-66.59104869-148.43823091-148.43823093-148.4382309H183.73875232c-81.84718222 0-148.43952545 66.59104869-148.43952546 148.4382309v598.24497147c0 81.85365491 66.59234323 148.43823091 148.43952546 148.43823091h198.85143483v-70.68567325H183.73875232c-42.87510755 0-77.75385221-34.88780642-77.75385221-77.7538522z" fill="currentColor" p-id="2033"></path></svg>