<?xml version="1.0" standalone="no"?><!DOCTYPE svg PUBLIC "-//W3C//DTD SVG 1.1//EN" "http://www.w3.org/Graphics/SVG/1.1/DTD/svg11.dtd"><svg t="1714075533272" class="icon" viewBox="0 0 1024 1024" version="1.1" xmlns="http://www.w3.org/2000/svg" p-id="1128" xmlns:xlink="http://www.w3.org/1999/xlink" width="200" height="200"><path d="M865.28 552.96c-23.04-12.8-23.04-46.08 0-58.88 64-38.4 87.04-120.32 48.64-186.88l-17.92-30.72c-38.4-64-120.32-87.04-184.32-48.64-20.48 12.8-46.08-2.56-46.08-28.16v-7.68c0-76.8-61.44-140.8-140.8-140.8h-25.6c-76.8 0-140.8 64-140.8 140.8v5.12c0 28.16-30.72 43.52-53.76 30.72-66.56-38.4-151.04-15.36-189.44 51.2L99.84 307.2c-38.4 64-15.36 148.48 48.64 186.88 23.04 12.8 23.04 46.08 0 58.88-64 38.4-87.04 120.32-48.64 186.88l17.92 28.16c38.4 66.56 122.88 89.6 189.44 51.2l7.68-5.12c20.48-12.8 46.08 2.56 46.08 25.6 0 74.24 58.88 133.12 133.12 133.12H537.6c71.68 0 130.56-58.88 130.56-130.56 0-23.04 23.04-35.84 43.52-25.6l5.12 2.56c64 38.4 145.92 15.36 184.32-48.64l17.92-30.72c35.84-66.56 12.8-148.48-53.76-186.88z m-51.2 89.6c15.36 10.24 20.48 30.72 12.8 46.08l-17.92 30.72c-7.68 15.36-28.16 20.48-43.52 12.8l-5.12-2.56c-87.04-51.2-197.12 12.8-197.12 112.64 0 15.36-12.8 28.16-28.16 28.16h-43.52c-17.92 0-30.72-12.8-30.72-30.72 0-102.4-110.08-166.4-199.68-115.2l-7.68 5.12c-15.36 10.24-38.4 5.12-48.64-12.8l-15.36-28.16c-10.24-15.36-2.56-35.84 12.8-46.08 89.6-51.2 89.6-184.32 0-235.52-15.36-10.24-20.48-30.72-12.8-46.08l15.36-30.72c10.24-17.92 30.72-23.04 48.64-12.8 92.16 53.76 207.36-12.8 207.36-120.32v-5.12c0-20.48 17.92-38.4 38.4-38.4h25.6c20.48 0 38.4 17.92 38.4 38.4v7.68c0 102.4 112.64 168.96 202.24 117.76 15.36-7.68 35.84-2.56 43.52 12.8l17.92 30.72c10.24 15.36 2.56 35.84-12.8 46.08-89.6 51.2-89.6 181.76 0 235.52z" p-id="1129"></path><path d="M512 332.8c-99.84 0-179.2 79.36-179.2 179.2s79.36 179.2 179.2 179.2 179.2-79.36 179.2-179.2-79.36-179.2-179.2-179.2z m0 256c-43.52 0-76.8-33.28-76.8-76.8s33.28-76.8 76.8-76.8 76.8 33.28 76.8 76.8-33.28 76.8-76.8 76.8z" p-id="1130"></path></svg>