<?xml version="1.0" standalone="no"?><!DOCTYPE svg PUBLIC "-//W3C//DTD SVG 1.1//EN" "http://www.w3.org/Graphics/SVG/1.1/DTD/svg11.dtd"><svg t="1714280668692" class="icon" viewBox="0 0 1024 1024" version="1.1" xmlns="http://www.w3.org/2000/svg" p-id="1634" xmlns:xlink="http://www.w3.org/1999/xlink" width="200" height="200"><path d="M817.166336 588.8a70.4 70.4 0 0 0-19.456-49.408L411.918336 153.6a177.152 177.152 0 0 0-55.04-35.072 165.888 165.888 0 0 0-62.976-14.336H69.390336a66.56 66.56 0 0 0-48.64 20.736A66.56 66.56 0 0 0 0.014336 174.592v223.744A162.816 162.816 0 0 0 14.350336 460.8a156.928 156.928 0 0 0 35.072 55.04L435.214336 902.144a65.536 65.536 0 0 0 48.64 19.456 70.4 70.4 0 0 0 49.152-19.456L797.710336 637.44a70.656 70.656 0 0 0 19.456-48.64zM221.198336 327.168a65.792 65.792 0 0 1-48.64 19.968 68.096 68.096 0 0 1-68.608-68.608A68.096 68.096 0 0 1 172.558336 209.92a67.328 67.328 0 0 1 68.096 68.608 60.672 60.672 0 0 1-19.456 48.64z m783.104 211.968L618.510336 153.6A172.8 172.8 0 0 0 563.214336 119.552a165.888 165.888 0 0 0-62.976-14.336h-120.832a162.048 162.048 0 0 1 62.976 14.336A156.928 156.928 0 0 1 497.422336 153.6L883.214336 537.6a69.376 69.376 0 0 1 19.968 51.2 65.792 65.792 0 0 1-19.968 48.64l-252.928 253.44a201.728 201.728 0 0 0 28.672 25.6A58.88 58.88 0 0 0 691.214336 921.6a68.608 68.608 0 0 0 49.152-19.968l263.936-264.96A65.536 65.536 0 0 0 1024.014336 588.8a69.888 69.888 0 0 0-19.712-49.152z m0 0" p-id="1635"></path></svg>