<?xml version="1.0" standalone="no"?><!DOCTYPE svg PUBLIC "-//W3C//DTD SVG 1.1//EN" "http://www.w3.org/Graphics/SVG/1.1/DTD/svg11.dtd"><svg t="1714230156671" class="icon" viewBox="0 0 1024 1024" version="1.1" xmlns="http://www.w3.org/2000/svg" p-id="1514" xmlns:xlink="http://www.w3.org/1999/xlink" width="200" height="200"><path d="M872 231.99999969h-142.36000031a40.00000031 40.00000031 0 0 1-37.92-27.31999969l-12.63999938-37.99999969A79.99999969 79.99999969 0 0 0 603.15999969 111.99999969H420.84000031a79.99999969 79.99999969 0 0 0-76.00000031 54.72l-12.64000031 37.92A40.00000031 40.00000031 0 0 1 294.36000031 231.99999969H152a40.00000031 40.00000031 0 0 0 0 80.00000062h42.6l30.04000031 450.63999938A160.39999969 160.39999969 0 0 0 384.27999969 912.00000031h255.44000062a160.39999969 160.39999969 0 0 0 159.63999938-149.36000062L829.4 312.00000031H872a40.00000031 40.00000031 0 0 0 0-80.00000062zM420.84000031 192.00000031h182.31999938l12.64000031 37.99999969c0.24 0.72 0.64000031 1.32 0.88000031 2.04H407.31999969c0.24-0.72 0.64000031-1.36000031 0.88000031-2.08000031z m298.71999938 565.32a80.20000031 80.20000031 0 0 1-79.99999969 74.67999938H384.27999969a80.20000031 80.20000031 0 0 1-79.99999969-74.67999938L274.76 312.00000031h19.60000031a120.52000031 120.52000031 0 0 0 12.63999938-1.00000031A42.52000031 42.52000031 0 0 0 312.00000031 312.00000031h399.99999938a42.52000031 42.52000031 0 0 0 5.00000062-1.00000031 120.52000031 120.52000031 0 0 0 12.63999938 1.00000031h19.60000031zM632 471.99999969v200.00000062a40.00000031 40.00000031 0 0 1-79.99999969 0v-200.00000062a40.00000031 40.00000031 0 0 1 79.99999969 0z m-160.00000031 0v200.00000062a40.00000031 40.00000031 0 0 1-79.99999969 0v-200.00000062a40.00000031 40.00000031 0 0 1 79.99999969 0z"></path></svg>