<?xml version="1.0" standalone="no"?><!DOCTYPE svg PUBLIC "-//W3C//DTD SVG 1.1//EN" "http://www.w3.org/Graphics/SVG/1.1/DTD/svg11.dtd"><svg t="1714186457250" class="icon" viewBox="0 0 1024 1024" version="1.1" xmlns="http://www.w3.org/2000/svg" p-id="1304" xmlns:xlink="http://www.w3.org/1999/xlink" width="200" height="200"><path d="M143.225 167.975h51.975v695.475H143.225z" p-id="1305"></path><path d="M156.275 479.6h166.5v52.875h-166.5zM248.075 77.075h-162A24.75 24.75 0 0 0 62 101.825V264.5a26.775 26.775 0 0 0 27.675 26.325h162a22.5 22.5 0 0 0 24.525-22.5V105.65A29.25 29.25 0 0 0 248.075 77.075z m656.775 0h-517.5a24.75 24.75 0 0 0-23.85 24.75V264.5a26.775 26.775 0 0 0 27.675 26.325h517.5a22.5 22.5 0 0 0 22.5-22.5V105.65A28.125 28.125 0 0 0 904.85 77.075zM727.325 401.75H387.8a25.425 25.425 0 0 0-23.85 25.65v161.775a27 27 0 0 0 27.675 26.775h339.525a23.625 23.625 0 0 0 24.3-22.5V431a29.7 29.7 0 0 0-28.125-29.25zM156.275 811.7h166.5v51.975h-166.5z m778.05-77.85H387.8A24.75 24.75 0 0 0 363.95 759.5v162a26.775 26.775 0 0 0 27.675 26.325h546.525a22.5 22.5 0 0 0 24.075-22.5v-162a28.575 28.575 0 0 0-27.9-28.35z m0 0" p-id="1306"></path></svg>