<?xml version="1.0" standalone="no"?><!DOCTYPE svg PUBLIC "-//W3C//DTD SVG 1.1//EN" "http://www.w3.org/Graphics/SVG/1.1/DTD/svg11.dtd"><svg t="1714077887732" class="icon" viewBox="0 0 1024 1024" version="1.1" xmlns="http://www.w3.org/2000/svg" p-id="973" xmlns:xlink="http://www.w3.org/1999/xlink" width="200" height="200"><path d="M385.63289986 90.7763329h523.52178363C925.19409093 90.7763329 933.2236671 100.13539626 933.2236671 118.86010458v154.44429019c0 18.72470833-8.02299454 28.08377167-24.06898361 28.08377169H385.63289986c-16.04598906 0-24.0689836-9.35906335-24.0689836-28.08377169V118.86010458C361.56391626 100.13539626 369.5869108 90.7763329 385.63289986 90.7763329z m150.43608374 315.91775032h373.08569989c16.04598906 0 24.0689836 9.35906335 24.06898361 28.0837717v154.44429016c0 18.72470833-8.02299454 28.08377167-24.06898361 28.0837717H536.0689836C520.02957616 617.30591679 512 607.94685341 512 589.22214508V434.77785492C512 416.05314659 520.02299454 406.69408321 536.0689836 406.69408321z m0 315.91775032h373.08569989c16.04598906 0 24.0689836 9.35906335 24.06898361 28.08377169v154.44429019c0 18.72470833-8.02299454 28.08377167-24.06898361 28.08377168H536.0689836C520.02957616 933.2236671 512 923.86460374 512 905.13989542v-154.44429019C512 731.97089689 520.02299454 722.61183354 536.0689836 722.61183354zM421.7396661 540.08377167c13.29487199 0 24.0689836-12.57089382 24.06898359-28.08377167 0-15.50629625-10.78069323-28.08377167-24.06898359-28.08377167H205.09906882V301.38816646h42.12236669c13.29487199 0 24.07556522-12.57089382 24.07556524-28.08377169V118.86010458C271.30358235 103.34722673 260.5163075 90.7763329 247.22143551 90.7763329H114.84531651C101.55044452 90.7763329 90.7763329 103.34722673 90.7763329 118.86010458v154.44429019C90.7763329 288.81727265 101.55044452 301.38816646 114.84531651 301.38816646h42.1223667v526.52958387c0 15.50629625 10.78069323 28.08377167 24.0689836 28.08377167h240.70299929c13.29487199 0 24.0689836-12.57089382 24.06898359-28.08377168 0-15.50629625-10.78069323-28.08377167-24.06898359-28.08377168H205.09906882V540.08377167h216.63401565z" p-id="974"></path></svg>