<?xml version="1.0" standalone="no"?><!DOCTYPE svg PUBLIC "-//W3C//DTD SVG 1.1//EN" "http://www.w3.org/Graphics/SVG/1.1/DTD/svg11.dtd"><svg t="1714079197241" class="icon" viewBox="0 0 1024 1024" version="1.1" xmlns="http://www.w3.org/2000/svg" p-id="973" xmlns:xlink="http://www.w3.org/1999/xlink" width="200" height="200"><path d="M280.83245186 303.94920635a231.16754814 231.16754814 0 1 1 231.16754814 231.16754814 231.4449492 231.4449492 0 0 1-231.16754814-231.16754814z m421.51090794 280.68363703a106.84564127 106.84564127 0 0 0-77.20996193 10.07890583 233.29428995 233.29428995 0 0 1-226.26679574 0 107.0305746 107.0305746 0 0 0-77.20996193-10.07890583 208.46689524 208.46689524 0 0 0-156.40796295 203.4274434v46.7420783a163.43545715 163.43545715 0 0 0 22.79312064 83.22031746 69.07286349 69.07286349 0 0 0 59.41005925 33.14942646h529.09628572a69.02662962 69.02662962 0 0 0 59.41005925-33.19566032 163.1580561 163.1580561 0 0 0 22.79312064-83.22031746v-46.88077884a208.46689524 208.46689524 0 0 0-156.40796295-203.242509z" fill="currentColor" p-id="974"></path></svg>